PathFileType	4	(X/Y/Z)	2_2_18_p0_0-274_filt_butterworth.trc
DataRate	CameraRate	NumFrames	NumMarkers	Units	OrigDataRate	OrigDataStartFrame	OrigNumFrames
60.0	60.0	6	27	m	60.0	34	274
Frame#	Time	RHip			RKnee			RAnkle			RBigToe			RSmallToe			RHeel			LHip			LKnee			LAnkle			LBigToe			LSmallToe			LHeel			Neck			Head			Nose			RShoulder			RElbow			RWrist			RThumb			RIndex			RPinky			LShoulder			LElbow			LWrist			LThumb			LIndex			LPinky			
		X1	Y1	Z1	X2	Y2	Z2	X3	Y3	Z3	X4	Y4	Z4	X5	Y5	Z5	X6	Y6	Z6	X7	Y7	Z7	X8	Y8	Z8	X9	Y9	Z9	X10	Y10	Z10	X11	Y11	Z11	X12	Y12	Z12	X13	Y13	Z13	X14	Y14	Z14	X15	Y15	Z15	X16	Y16	Z16	X17	Y17	Z17	X18	Y18	Z18	X19	Y19	Z19	X20	Y20	Z20	X21	Y21	Z21	X22	Y22	Z22	X23	Y23	Z23	X24	Y24	Z24	X25	Y25	Z25	X26	Y26	Z26	X27	Y27	Z27	
34	0.5666666666666667	0.32114584428543025	0.6997232434721813	0.7809645922523327	0.32359915991186466	0.28000640901455076	0.8110490152444246	0.28944742733522255	-0.1711734927498999	0.8992486226819616	0.2974517476855062	-0.16920012867279424	0.6480186290459639	0.3492153003444492	-0.20023168841348457	0.7194363094344214	0.27853190894743257	-0.20985759443216373	0.9132775781866932	0.12778964696543849	0.6921968238930971	0.8003437762998207	0.13446748252165405	0.252182012664278	0.8488047405410711	0.1382115017468362	-0.177634315656241	0.9108475417232995	0.1237261059413375	-0.21704599859666074	0.7026078304811781	0.077185178941458	-0.1947677886000855	0.7351523299145468	0.14075922283754008	-0.23776012377826172	0.935125941661849	0.21098120710425117	1.3070450173613755	0.76499671088144	0.2310111470697696	1.5643214282853537	0.662867866723411	0.24718487514306975	1.423194889473164	0.6293744251716907	0.38993025213245813	1.24976977257833	0.7832990645839024	0.514182706700709	1.0106409064180992	0.7738648027614714	0.33799981108666377	0.9270626332920635	0.6466328967462927	0.2215504453263036	0.9254486104736779	0.5818362254424446	0.20413817306771703	0.8906665641530632	0.5908097017161619	0.21716823345185526	0.8428123435907693	0.6362534525880912	0.05453740262217864	1.2297463089496816	0.7729104919499017	-0.07903305667250218	0.9965370579598805	0.7708231614879425	0.14388391335506465	0.913359348275143	0.6436338094751537	0.26351439997316695	0.9163956933583329	0.6364358988109631	0.27025820445369586	0.8971178639153835	0.6369161760000686	0.20358470578483095	0.8388320430507793	0.5935464655850897	
35	0.5833333333333334	0.32114248914786353	0.6993076759278577	0.7808250448865107	0.32361387181383444	0.2799860100953388	0.8110895205899269	0.2894423873967656	-0.1711756565228087	0.8992502163292516	0.2974613867508995	-0.16924446180323177	0.6480346428100893	0.34922749123468455	-0.20030347360727524	0.7195787221602703	0.27852367615055057	-0.20989031853199405	0.9132563217393053	0.12794415058094277	0.6917932030908842	0.8006715556346611	0.13441683043167005	0.25256198266140595	0.8486213082450753	0.13819832179616132	-0.17764281823920686	0.910846345297188	0.12383504227703972	-0.21786564084696086	0.702860054662391	0.07715430314028333	-0.19485314912936966	0.7352299735171476	0.14059833793214202	-0.23766429042560214	0.9344043619050857	0.2116342929889331	1.3064527842290001	0.7639918645597528	0.23099217493821717	1.564333859727169	0.6628454495202868	0.24723450792109644	1.4231611370219128	0.6293911609999626	0.3899613899776998	1.2501534143436084	0.7832530245097566	0.5141798300769774	1.0106448026676471	0.7737994985093857	0.3379545233027262	0.925762012640954	0.6515784903835259	0.22001948852884656	0.9247514384914067	0.5864606368828835	0.20311307834202313	0.8889458602677719	0.5940217749725479	0.21627857256478777	0.8420061850065738	0.6404407666025774	0.05466123029745314	1.2293176494682498	0.7728163188721019	-0.07905419955786522	0.9964211862801222	0.7710617730271372	0.14343510378940857	0.9131478447785384	0.6436733292839629	0.2647058952844793	0.9170543143329483	0.6345118295600263	0.2711105076010726	0.8971756003693702	0.6343068664883489	0.20610053277059143	0.8399276974921516	0.5903263725149566	
36	0.6	0.3212106076208593	0.6987131313115967	0.7806770534198764	0.3236358357541486	0.2798802458304138	0.8112399118357356	0.2894389483187855	-0.17118206395353724	0.8992551744799289	0.29746851343900427	-0.16929572454121408	0.6480637205143287	0.3492089191833914	-0.2003101712792856	0.7195978852853459	0.2785156753160215	-0.209918444632518	0.9132456007752942	0.1281220079573689	0.691301250180949	0.8008932756359758	0.13437394084768906	0.2529871923365775	0.8482979842822346	0.13818501681216067	-0.17765569131765746	0.910852830393253	0.12396679583430245	-0.2188199527020297	0.7036435291631284	0.07714786991351573	-0.1949751483439934	0.7352519333651301	0.14047198747489612	-0.2375461106153595	0.9337150317003562	0.2124806306448364	1.3059617124850942	0.7616794152553494	0.23096924481768663	1.5643471928487207	0.6628229274249703	0.24733318947961155	1.423123467711922	0.6294447024063992	0.3899898981462998	1.2503693135364773	0.7831865385172454	0.5141334042592506	1.0106534642660785	0.7736051495883667	0.33780768376125936	0.9249261785594428	0.6562863931174067	0.21880996317195436	0.9246032232245384	0.5914118014010166	0.20257937728963654	0.8877629171034104	0.5967053778617165	0.21523417316365687	0.8417178871135845	0.6444984973627021	0.05453271567268488	1.2285043201639647	0.7731945143170779	-0.07907082762906757	0.996235910244591	0.7712855609125433	0.14309723629318627	0.913586171059666	0.6421033932875481	0.26575964251947776	0.9180084179876992	0.6323080213210999	0.27191423293066863	0.8975547319843484	0.6314794995098618	0.208656885311287	0.8411708146847633	0.5863744569365822	
37	0.6166666666666667	0.32137745772976367	0.6979819920283972	0.780542906688669	0.3236667419655996	0.27966328518713146	0.8114830141522421	0.28943815886886437	-0.17119317256257466	0.8992647061656855	0.2974739550710288	-0.16934553293631543	0.6481027043410978	0.34916105569401623	-0.20028036445772632	0.7194054103558707	0.2785070782565933	-0.20992341890434568	0.9132548558996243	0.12834010040497773	0.6906603396312719	0.8010556188760345	0.13435549117386636	0.2533898474287766	0.847999114519629	0.1381728499427558	-0.17766900759471696	0.9108649109095247	0.12414642774422104	-0.22000908695150004	0.705198991748575	0.0771650137778145	-0.1951116061241419	0.7352265330806946	0.1402836527183184	-0.23750570155364178	0.9332862780926424	0.21335625106478223	1.305677952137745	0.7580523420850953	0.23094458227686296	1.5643575948114383	0.6627945557547079	0.2474117646870977	1.4230770327184368	0.6295095596115977	0.3900087181107694	1.250397234044205	0.7831041048864058	0.5140400413828485	1.0107158833273795	0.7732937702792626	0.33803802276426664	0.9252472814916369	0.6589073513484005	0.21879142528719736	0.9259004247322993	0.594455531752774	0.2031978772254573	0.8884618164751694	0.5970987789994278	0.21500832121348484	0.8428397041726782	0.6461595186300653	0.0543653063626269	1.2276797820924188	0.7735596224503181	-0.07907248395153182	0.995987362150501	0.77137368483479	0.1430805237367861	0.9148782644875791	0.6390715029944936	0.2666146691259933	0.9190939201205202	0.630461686983657	0.2726346063512951	0.8984441541851771	0.6290134652405858	0.2109624199975042	0.8425077210109542	0.5818847743383176	
38	0.6333333333333333	0.321605038173612	0.6971974903270672	0.7804623300531567	0.32370467398304675	0.2793570288035599	0.8117931109368015	0.2894403669068558	-0.17120690667967842	0.8992786252436944	0.29748054192818585	-0.1693853453815864	0.6481470872117678	0.3491441831573272	-0.20037499287961916	0.7191719501527167	0.2784959526533852	-0.20988589607244523	0.9132909438741509	0.12862019945325265	0.6899204751531037	0.8012566010774871	0.13437379936711394	0.25373932678540256	0.8479325523052466	0.13816277495227386	-0.17767939694178936	0.9108787443982581	0.12438374950313626	-0.22138982147880845	0.7075748016956338	0.07720666271928528	-0.19521808035381757	0.7351644832233359	0.13996331858551744	-0.23761467456732951	0.9332190957057497	0.21414359508585323	1.3056571753469957	0.7535115413127254	0.23092117960926517	1.5643533300990737	0.6627476222435952	0.2473464620643634	1.4230207969901332	0.6295262881051629	0.39002263164101925	1.250247903800275	0.7830114755993791	0.5139531835286707	1.0107459009045903	0.7730808525473616	0.33896652849238595	0.9270620810248764	0.65861264198367	0.22029179445140562	0.9291031815222779	0.594259136487991	0.20528412637100946	0.8917379957206496	0.5943282563340306	0.21605149731159945	0.845905360009439	0.64382509333912	0.054295547705383085	1.2272444132917717	0.7736734808698853	-0.07903375391116577	0.9957693661889503	0.771209431225803	0.14356894897702033	0.9169992565969224	0.6350706870533924	0.2673437330540547	0.9202422049148076	0.6293933596382209	0.2733347681993269	0.8997734783912812	0.6276218387366607	0.21289378102587841	0.8439441962851507	0.5768969118484885	
39	0.65	0.3218316991061465	0.69644982838311	0.7804769491206445	0.32374197343384475	0.27904170084515645	0.8121348486257174	0.28944516173794044	-0.17121927288503397	0.8992952204613075	0.29749076749991543	-0.16940896748238787	0.6481915382966674	0.34925511637545714	-0.20079405802578498	0.7193382637574298	0.2784830401866996	-0.2098143146316132	0.9133463953163296	0.12896357391313695	0.6891898636582161	0.801617824213704	0.13443502405890684	0.2540238466693385	0.8482487590689525	0.1381551373210581	-0.17768590099469983	0.9108918072171773	0.124682459513998	-0.22275637086667358	0.710446548599674	0.07727052718599897	-0.19525990714256772	0.7350802065287577	0.13952212513593173	-0.23788280608245277	0.9335027808944638	0.21474958535466093	1.3059017650094198	0.7486918756723311	0.23089605826712561	1.564315172157096	0.6626864143297918	0.24705607971140464	1.4229834361433062	0.6294556528727224	0.39004749908031	1.2499137329080827	0.7829386257608394	0.5139568027525766	1.0106011953289826	0.7733361392853031	0.34054760393121136	0.9301966307958406	0.6556874500556475	0.22299581699800508	0.9341556192480179	0.5906825606049431	0.20845269945692935	0.8973235198261644	0.5885721652595168	0.21800179010539456	0.8507901718031717	0.6366469870571736	0.05435678160162864	1.2273962108165617	0.7735427736994857	-0.07892562299854353	0.9957578612193978	0.7707785129362275	0.14462260850761127	0.9198571433831589	0.6304079118993574	0.26793548047193	0.9216518317969327	0.6287328794774496	0.2739292160518547	0.9013251304553618	0.6276397730480441	0.21463471393057892	0.8454685614834718	0.5715304644770025	
